<svg xmlns="http://www.w3.org/2000/svg" width="238.19" height="501.874" viewBox="0 0 238.19 501.874"><g transform="translate(-356.305 -147.48)"><path d="M422,712.6l3.315,23.7a7.6,7.6,0,0,0,7.79,6.216H539.349a7.6,7.6,0,0,0,7.79-6.216l3.315-23.7Z" transform="translate(-10.745 -96.163)" fill="#d6d6d4"/><path d="M536.946,742.517l7.707-1.989,5.635-27.929H422l1.243,9.116H529.322C544.488,721.716,536.946,742.517,536.946,742.517Z" transform="translate(-10.745 -96.163)" fill="#bababa"/><path d="M554.485,655.032,583.491,423.4H371.5l29.006,231.632a9.315,9.315,0,0,0,9.282,8.039h135.5A9.163,9.163,0,0,0,554.485,655.032Z" transform="translate(-2.096 -46.634)" fill="#fe7624"/><g transform="translate(429.727 530.745)"><path d="M490.807,647.987a7.389,7.389,0,0,1-4.227-1.492,9.115,9.115,0,0,1-2.983-6.961,12.5,12.5,0,0,1,3.481-9.448c.663-.58,2.569-2.486,5.055-2.486a2.3,2.3,0,0,1,.746.083,6.332,6.332,0,0,1,4.309,3.149,12.678,12.678,0,0,1,1.657,9.613c-.912,3.646-3.978,7.542-7.873,7.624Zm.829-11.437c-.746,1.74-.58,2.818-.332,3.066a.081.081,0,0,1,.083.083,2.529,2.529,0,0,0,.414-.746A3.9,3.9,0,0,0,491.636,636.55Z" transform="translate(-451.019 -612.351)" fill="#feba91" opacity="0.41"/><path d="M501.376,655.112a5.287,5.287,0,0,1-2.983-.912c-1.823-1.243-1.74-2.9-1.243-8.95.331-3.812.829-9.7,1.243-18.812,0-.5.083-.912.083-1.409h-.746a15.978,15.978,0,0,1-1.989.083,16.143,16.143,0,0,0-2.072.166c-.249,0-.5.083-.746.083a7.156,7.156,0,0,1-1.243.083,2.437,2.437,0,0,1-1.823-.746c-1.74-1.74.166-5.47,1.575-6.878a6.618,6.618,0,0,1,4.641-1.657,17.824,17.824,0,0,1,3.812.5,11.15,11.15,0,0,1,3.9-5.718,8.364,8.364,0,0,1,4.89-1.74,4.037,4.037,0,0,1,.994.083,6.378,6.378,0,0,1,3.4,1.575,5.769,5.769,0,0,1,1.575,4.061,5.869,5.869,0,0,1,2.155-.414,3.4,3.4,0,0,1,.912.083,5,5,0,0,1,3.066,1.492,5.888,5.888,0,0,1,1.326,5.138l-.332,1.409a1.8,1.8,0,0,0,.663-.414,3.533,3.533,0,0,0,.912-2.32l.249-3.4,4.227,3.978.166.249c.746,1.492.249,3.4-1.492,5.553-1.243,1.575-3.646,2.32-7.293,2.32a29.934,29.934,0,0,1-3.646-.249,70.886,70.886,0,0,0-.414,8.536c.083,1.657.083,3.232.166,4.558.249,7.376.331,10.359-1.989,12.1a5.286,5.286,0,0,1-2.983.912h0a4.625,4.625,0,0,1-2.735-.829,2.989,2.989,0,0,1-1.409-2.32,5.027,5.027,0,0,1-1.74,2.4A3.525,3.525,0,0,1,501.376,655.112Zm5.635-28.26c-.331,4.144-.249,8.122-.249,8.122.083,1.906.083,3.646.166,5.221,0,.663.083,1.243.083,1.823.249-3.066.5-7.044.746-12.348a25.094,25.094,0,0,1,.166-2.569C507.591,627.018,507.343,626.935,507.011,626.852Zm10.691-4.061a17.235,17.235,0,0,0,2.486.331,2.3,2.3,0,0,0,.746-.083l-1.077-.58a2.161,2.161,0,0,0-.912-.249H518.7A2.118,2.118,0,0,0,517.7,622.791Zm-8.122-2.735a9.658,9.658,0,0,1,1.575-2.569h-.5A3.4,3.4,0,0,0,509,618.565a3.469,3.469,0,0,0-.663,1.077A10.9,10.9,0,0,1,509.58,620.056Z" transform="translate(-451.974 -609.2)" fill="#feba91" opacity="0.41"/><path d="M525.183,650.453a6.478,6.478,0,0,1-4.641-1.657c-1.575-1.575-2.155-4.475-1.409-7.79.746-3.646,3.149-8.536,7.542-10.359a10.175,10.175,0,0,1,3.646-.746,6.381,6.381,0,0,1,3.978,1.326,6.722,6.722,0,0,1,1.823,6.8,7.138,7.138,0,0,1-3.978,4.475,1.9,1.9,0,0,1,.414,1.16,6.212,6.212,0,0,1-1.906,4.641A7.627,7.627,0,0,1,525.183,650.453Zm4.227-14.006a3.1,3.1,0,0,0-.829.5A7.273,7.273,0,0,0,529.41,636.447Z" transform="translate(-457.052 -612.745)" fill="#feba91" opacity="0.41"/><path d="M541.233,651.247a6.553,6.553,0,0,1-4.89-1.906c-1.575-1.657-2.072-4.309-1.492-7.459.829-3.978,3.315-7.376,6.3-8.619a9.982,9.982,0,0,1,3.481-.663,5.5,5.5,0,0,1,4.392,1.74c1.823,2.072,1.16,4.972.912,5.8a7.077,7.077,0,0,1-3.066,3.978,1.732,1.732,0,0,1,.5,1.243,5.66,5.66,0,0,1-1.823,4.226A5.806,5.806,0,0,1,541.233,651.247Z" transform="translate(-459.759 -613.207)" fill="#feba91" opacity="0.41"/><path d="M465.1,654.557a11.821,11.821,0,0,1-3.812-.58c-4.144-1.243-7.459-4.641-9.365-9.531-2.072-5.3-1.409-12.017,1.575-18.066a10.965,10.965,0,0,0-3.315,1.492,5.89,5.89,0,0,1-2.983,1.16,2.729,2.729,0,0,1-1.575-.5,4.4,4.4,0,0,1-1.326-3.729c.083-1.989.995-4.724,3.232-5.967a5.6,5.6,0,0,1,2.9-.746c2.155,0,4.641.995,7.21,2.155a19.476,19.476,0,0,1,8.37-5.718,17.2,17.2,0,0,1,4.724-.829,6.368,6.368,0,0,1,4.972,1.906c2.486,2.818,1.326,7.873-1.243,10.856a10.645,10.645,0,0,1-7.707,3.4h-.663a13.31,13.31,0,0,1-4.392-.829c-.414-.083-.746-.249-1.077-.332-1.575,5.553-.829,11.52,1.823,13.757a6.329,6.329,0,0,0,3.729,1.409,3.109,3.109,0,0,0,.912-.083c.083,0,2.32-.58,2.735-2.32a2.87,2.87,0,0,0-.414-2.486,3.61,3.61,0,0,0-1.326-.829,2.122,2.122,0,0,1-1.658-2.155c.166-1.575,2.155-2.32,3.9-2.32a9.131,9.131,0,0,1,1.492.166c3.812.995,6.63,6.381,5.718,11.105a11.241,11.241,0,0,1-4.724,6.879,11.425,11.425,0,0,1-7.707,2.735Zm-1.575-31.326a5.287,5.287,0,0,0,2.32.746h.5c1.409-.166,3.066-.995,3.481-2.32.249-.663.166-1.326,0-1.409a1.276,1.276,0,0,0-.663-.166,6.611,6.611,0,0,0-3.066.912l-.083.083A8.627,8.627,0,0,0,463.525,623.23Z" transform="translate(-444.289 -609.971)" fill="#feba91" opacity="0.41"/></g><path d="M371.5,423.4l2.238,18.232H550.093a11.2,11.2,0,0,1,11.105,12.6l-18.4,190.61a16.54,16.54,0,0,1-13.426,14.586l-20.718,3.729H545.2a9.245,9.245,0,0,0,9.282-8.039l29.006-231.632H371.5Z" transform="translate(-2.096 -46.634)" fill="#fb5e00"/><path d="M422,712.6l3.315,23.7a7.6,7.6,0,0,0,7.79,6.216H539.349a7.6,7.6,0,0,0,7.79-6.216l3.315-23.7Z" transform="translate(-10.745 -96.163)" fill="none" stroke="#474747" stroke-linecap="round" stroke-linejoin="round" stroke-miterlimit="10" stroke-width="6"/><path d="M554.485,655.032,583.491,423.4H371.5l29.006,231.632a9.315,9.315,0,0,0,9.282,8.039h135.5A9.163,9.163,0,0,0,554.485,655.032Z" transform="translate(-2.096 -46.634)" fill="none" stroke="#474747" stroke-linecap="round" stroke-linejoin="round" stroke-miterlimit="10" stroke-width="6"/><path d="M585.955,416H364.848c-7.21.083-6.216-3.812-3.729-11.188a20.7,20.7,0,0,0,0-13.426c-2.486-7.459-3.481-11.271,3.729-11.188H585.955c7.21-.083,6.216,3.812,3.729,11.188a20.7,20.7,0,0,0,0,13.426C592.171,412.189,593.165,416.084,585.955,416Z" transform="translate(-0.002 -39.236)" fill="#646464"/><g transform="translate(359.262 342.207)"><path d="M637.072,391.562c1.575-4.807,2.569-8.122,1.16-9.862-.332,1.077-.746,2.32-1.16,3.646a22.07,22.07,0,0,0-.912,9.862A29.31,29.31,0,0,1,637.072,391.562Z" transform="translate(-406.652 -381.7)" fill="#7c7c7c"/><path d="M362.028,395.208a20.03,20.03,0,0,0-.912-9.862c-.414-1.326-.829-2.486-1.16-3.646-1.409,1.74-.5,5.055,1.16,9.862A19.566,19.566,0,0,1,362.028,395.208Z" transform="translate(-359.262 -381.7)" fill="#7c7c7c"/><path d="M590.843,414.2c-.829.912-2.32,1.409-4.89,1.409H364.846c-2.569,0-4.061-.414-4.89-1.409-1.409,5.055-1.077,7.624,4.89,7.624H585.954C591.921,421.907,592.252,419.255,590.843,414.2Z" transform="translate(-359.263 -387.266)" fill="#7c7c7c"/></g><g transform="translate(359.289 340.876)"><path d="M637.076,409.643a6.9,6.9,0,0,1-.331-1.243,20.906,20.906,0,0,0,.249,11.934C640.06,419.091,638.983,415.444,637.076,409.643Z" transform="translate(-406.683 -384.942)" fill="#646464"/><path d="M362.283,399.491c.829-.332,4.061-8.37,9.033-8.37H581.4c5.967,0,7.044,12.1,7.956,12.431,0-.083.331-12.182.331-12.265,2.486-7.459,3.481-11.271-3.729-11.188H365.1c-7.459-.166-6.464,3.729-3.978,11.188C361.205,391.453,362.2,399.409,362.283,399.491Z" transform="translate(-359.295 -380.094)" fill="#646464"/><path d="M361.29,420.334a20.906,20.906,0,0,0,.249-11.934c-.083.414-.249.829-.331,1.243C359.218,415.444,358.14,419.091,361.29,420.334Z" transform="translate(-359.296 -384.942)" fill="#646464"/></g><path d="M585.955,416H364.848c-7.21.083-6.216-3.812-3.729-11.188a20.7,20.7,0,0,0,0-13.426c-2.486-7.459-3.481-11.271,3.729-11.188H585.955c7.21-.083,6.216,3.812,3.729,11.188a20.7,20.7,0,0,0,0,13.426C592.171,412.189,593.165,416.084,585.955,416Z" transform="translate(-0.002 -39.236)" fill="none" stroke="#474747" stroke-linecap="round" stroke-linejoin="round" stroke-miterlimit="10" stroke-width="6"/><path d="M582.062,374.534H373.8l2.072-7.293c3.232-11.6,14.337-19.641,27.017-19.641H552.973c12.68,0,23.7,8.039,27.017,19.641Z" transform="translate(-2.49 -33.653)" fill="#d6d6d4"/><path d="M582.062,374.534H373.8l2.072-7.293c3.232-11.6,14.337-19.641,27.017-19.641H552.973c12.68,0,23.7,8.039,27.017,19.641Z" transform="translate(-2.49 -33.653)" fill="#d6d6d4"/><path d="M417.457,356.219l142.129-.083c10.276,0,16.575,7.376,19.475,8.287-5.055-7.542-16.243-16.823-26.022-16.823H402.789c-12.68,0-23.7,8.039-27.017,19.641l-2.072,7.293h18.066C396.159,364.921,406.187,356.219,417.457,356.219Z" transform="translate(-2.473 -33.653)" fill="#fff"/><path d="M582.062,374.534H373.8l2.072-7.293c3.232-11.6,14.337-19.641,27.017-19.641H552.973c12.68,0,23.7,8.039,27.017,19.641Z" transform="translate(-2.49 -33.653)" fill="none" stroke="#474747" stroke-linecap="round" stroke-linejoin="round" stroke-miterlimit="10" stroke-width="6"/><path d="M563.851,344.192H507v-5.3A11.194,11.194,0,0,1,518.188,327.7h34.558a11.194,11.194,0,0,1,11.188,11.188v5.3Z" transform="translate(-25.302 -30.245)" fill="#d6d6d4"/><path d="M563.851,344.192H507v-5.3A11.194,11.194,0,0,1,518.188,327.7h34.558a11.194,11.194,0,0,1,11.188,11.188v5.3Z" transform="translate(-25.302 -30.245)" fill="#d6d6d4"/><path d="M507.083,344.043a10.575,10.575,0,0,1,10.608-10.608h35.636a10.644,10.644,0,0,1,10.525,9.282v-4.309A10.575,10.575,0,0,0,553.244,327.8H517.608A10.575,10.575,0,0,0,507,338.408v5.8h.083v-.166Z" transform="translate(-25.302 -30.262)" fill="#fff"/><path d="M484.606,566.233c-8.785,0-24.7-6.216-29.752-22.873a46.23,46.23,0,0,1,5.553-41.6c6.133-8.785,14.5-13.757,22.956-13.757a22.154,22.154,0,0,1,7.624,1.409l.083.083.083.083a5.71,5.71,0,0,1,3.066,3.564c.5,2.4-1.077,4.641-3.149,7.459-4.144,5.718-9.779,13.508-4.227,28.011,6.464,16.741,6.464,32.652,2.486,36.465C488.5,565.819,486.843,566.233,484.606,566.233Z" transform="translate(-15.919 -57.698)" fill="#feba91"/><path d="M563.851,344.192H507v-5.3A11.194,11.194,0,0,1,518.188,327.7h34.558a11.194,11.194,0,0,1,11.188,11.188v5.3Z" transform="translate(-25.302 -30.245)" fill="none" stroke="#474747" stroke-linecap="round" stroke-linejoin="round" stroke-miterlimit="10" stroke-width="6"/><path d="M514.947,566.823a11.44,11.44,0,0,1-8.287-3.4,9.215,9.215,0,0,1-2.486-6.879c.414-6.63-1.823-12.928-3.978-19.061-1.989-5.553-3.9-10.856-3.9-16.326-.083-20.221,13.508-26.6,15.166-27.266a6.885,6.885,0,0,1,3.647-.995c5.387,0,12.017,5.3,16.823,13.508a47.78,47.78,0,0,1,.249,47.652c-4.558,8.122-10.774,12.763-17.238,12.763Z" transform="translate(-23.469 -58.537)" fill="#feba91"/><path d="M491.729,488.231c9.779,5.553-15,12.348-5.055,38.2,6.8,17.652,5.8,31.906,2.9,34.641s-25.608-.5-31.906-20.884C447.392,512.181,469.768,480.026,491.729,488.231Z" transform="translate(-16.413 -57.515)" fill="#f6f9e4"/><path d="M513.554,492.734s-14.337,5.635-14.254,25.857c0,11.271,8.7,22.625,7.873,35.47-.58,8.95,14.752,14.917,24.945-3.4C549.936,518.342,523.416,486.436,513.554,492.734Z" transform="translate(-23.983 -58.372)" fill="#f6f9e4"/><g transform="translate(430.619 530.858)"><path d="M487.58,629.58c-3.812,3.646-3.978,11.188-.58,13.923a5.126,5.126,0,0,0,3.315,1.16c3.149-.083,5.553-3.564,6.3-6.381,1.16-4.475-1.243-10.111-4.558-10.691C489.983,627.26,488.16,629,487.58,629.58Zm5.055,8.2c-.083.249-.58,1.74-1.74,1.906a1.9,1.9,0,0,1-1.409-.5c-.995-.912-.912-2.983.083-5.221.663-.995,1.16-1.243,1.492-1.16C492.221,632.812,493.464,635.63,492.635,637.785Z" transform="translate(-452.081 -612.456)" fill="#f6f9e4"/><path d="M500.234,651.24c-1.74-1.16-.249-3.812.746-26.354.249-6.216,1.575-11.851,4.807-14.089a6.92,6.92,0,0,1,4.724-1.409,3.928,3.928,0,0,1,2.4,1.16,4.555,4.555,0,0,1,.995,4.144,4.274,4.274,0,0,0-2.569-.5,5.227,5.227,0,0,0-2.569,1.575c-3.149,3.4-2.818,17.652-2.818,17.652.331,11.851.912,15.995-1.409,17.652A3.871,3.871,0,0,1,500.234,651.24Z" transform="translate(-454.625 -609.336)" fill="#f6f9e4"/><path d="M511.657,652.12c-1.492-.995-.249-3.315.663-22.79.249-5.387,1.409-10.276,4.144-12.182a5.517,5.517,0,0,1,4.061-1.16,4.283,4.283,0,0,1,2.155.995,4.045,4.045,0,0,1,.829,3.646,3.376,3.376,0,0,0-2.238-.414,4.183,4.183,0,0,0-2.238,1.326c-2.735,2.983-2.4,15.249-2.4,15.249.249,10.276.746,13.84-1.243,15.249A3.381,3.381,0,0,1,511.657,652.12Z" transform="translate(-456.6 -610.465)" fill="#f6f9e4"/><path d="M527.095,643.527a3.312,3.312,0,0,1-2.486-.332c-1.74-1.243-1.16-5.635.995-8.2.331-.331,2.238-2.486,3.978-1.906.5.166,1.16.663,1.16,1.243.083,1.409-2.818,2.983-5.387,3.149a7.97,7.97,0,0,1-3.232-.5c-.746,1.077-.663,1.74-.58,1.989.5,1.575,4.061,1.492,4.558,1.409.332,0,6.547-.414,7.707-4.641a5.273,5.273,0,0,0-1.326-5.138c-2.155-1.823-5.47-.58-5.884-.332-5.884,2.32-8.536,12.431-5.553,15.415,1.74,1.74,5.8,1.492,7.79-.414,1.326-1.326,1.658-3.4,1.243-3.646C529.83,641.62,529,643.112,527.095,643.527Z" transform="translate(-458.115 -612.811)" fill="#f6f9e4"/><path d="M542.314,645.1a2.787,2.787,0,0,1-2.155-.249c-1.575-1.16-.912-5.055.912-7.293.249-.331,1.657-2.072,2.818-1.657a1.524,1.524,0,0,1,.995,1.409c-.083,1.326-2.32,2.32-3.978,2.486a5.644,5.644,0,0,1-2.9-.414c-.663.912-.58,1.575-.5,1.74.414,1.243,2.818,1.409,4.061,1.243,2.155-.166,5.387-1.492,6.216-4.392.083-.331.746-2.735-.58-4.227-1.492-1.657-4.309-1.326-6.05-.663-4.89,1.989-7.127,10.525-4.309,13.426,1.657,1.657,5.3,1.823,7.044.249,1.243-1.077,1.492-2.983,1.16-3.232C544.718,643.364,543.972,644.69,542.314,645.1Z" transform="translate(-460.82 -613.311)" fill="#f6f9e4"/><path d="M524.534,619.947a5.31,5.31,0,0,1-1.409,3.4c-5.718,5.47-25.442-9.862-30.995-4.392-1.243,1.16-2.238,3.812-1.575,4.558.331.332.912.166,2.4,0,1.326-.166,2.735-.083,4.061-.249,3.315-.332,8.37,1.657,13.591,2.818,1.326.249,11.768,2.4,14.254-.746.331-.414,1.906-2.486,1.243-3.812h0Z" transform="translate(-453.068 -610.778)" fill="#f6f9e4"/><path d="M458.82,621.344c3.564,1.74,4.724,2.9,7.044,2.652,1.823-.249,4.227-1.326,4.89-3.481.249-.829.414-2.321-.331-3.066-1.16-1.243-4.061-.414-5.718.414a.29.29,0,0,1-.166.083c-7.21,3.9-9.448,19.475-3.646,24.365a7.169,7.169,0,0,0,6.133,1.657c.331-.083,3.232-.829,3.978-3.481a4.825,4.825,0,0,0-.746-3.978c-1.077-1.243-2.652-1.326-2.569-1.74,0-.414,1.74-1.077,3.315-.663,2.983.746,5.221,5.3,4.475,9.2a9.655,9.655,0,0,1-4.061,5.8,11.836,11.836,0,0,1-10.193,1.657c-5.635-1.74-7.79-7.376-8.287-8.536-4.061-10.442,3.564-24.7,13.094-27.68.663-.249,5.8-1.823,7.956.58,1.823,2.072.829,6.3-1.243,8.619a9.414,9.414,0,0,1-6.547,2.9,12.526,12.526,0,0,1-4.558-.746c-4.227-1.16-4.475-2.486-6.8-2.9-4.475-.663-7.293,3.646-8.785,2.569-1.326-.995-.746-5.553,1.74-6.961C450.2,617.2,454.179,619.106,458.82,621.344Z" transform="translate(-445.365 -610.103)" fill="#f6f9e4"/></g><path d="M571.768,202.4c-6.464,9.033-13.591,11.271-19.061,21.8-1.492,2.9-5.884,11.354-4.558,21.547,1.74,13.426,11.851,16.906,12.845,29.006.414,5.47-1.077,12.1-6.63,19.89" transform="translate(-32.307 -8.786)" fill="none" stroke="#feba91" stroke-linecap="round" stroke-linejoin="round" stroke-miterlimit="10" stroke-width="6"/><path d="M596.293,151.1c5.055,20.967,1.409,33.9-2.9,41.851-7.873,14.5-22.21,20.138-23.2,34.724-.5,6.879,2.238,12.68,4.475,16.326" transform="translate(-36.113)" fill="none" stroke="#feba91" stroke-linecap="round" stroke-linejoin="round" stroke-miterlimit="10" stroke-width="6"/><path d="M542.345,211.1s-9.945,11.6-9.945,22.127" transform="translate(-29.652 -10.276)" fill="none" stroke="#feba91" stroke-linecap="round" stroke-linejoin="round" stroke-miterlimit="10" stroke-width="6"/></g></svg>