<svg xmlns="http://www.w3.org/2000/svg" shape-rendering="geometricPrecision" text-rendering="geometricPrecision" image-rendering="optimizeQuality" fill-rule="evenodd" clip-rule="evenodd" viewBox="0 0 497 511.74"><path fill-rule="nonzero" d="M466.63 211.73V439.5c0 8.19-3.36 15.66-8.77 21.06-5.39 5.39-12.86 8.77-21.06 8.77h-83.9c5.62-9.41 10.68-19.04 15.16-28.8h68.74c.24 0 .5-.13.7-.34.2-.2.33-.45.33-.69V214.3c10.24.91 19.92-.06 28.8-2.57zM251.7 511.74c94.65-57.38 131.17-190.37 66.02-249.8-39.72-36.25-91.75-33.77-132.71-1.12-71.81 57.21-39.6 183.38 66.69 250.92zm-3.13-223.6c29.83 0 54.02 24.18 54.02 54.02 0 29.83-24.19 54.02-54.02 54.02-29.84 0-54.03-24.19-54.03-54.02 0-29.84 24.19-54.02 54.03-54.02zm150.32-121.83c-15.79 30.05-70.14 33.19-91.7 11.63a48.126 48.126 0 0 1-8.57-11.63c-15.78 30.04-70.14 33.19-91.7 11.63-3.4-3.41-6.3-7.33-8.56-11.63-2.26 4.3-5.16 8.22-8.57 11.63-18.16 18.17-64.96 18.17-83.13 0a48.126 48.126 0 0 1-8.57-11.63c-2.26 4.3-5.16 8.22-8.56 11.63C64.65 202.81.28 193.08.28 144.27c0-2.98-.97-18.47.7-21.46L34.56 15.2C37.34 6.34 44.07.65 57.13.01L437.22 0c11.73 1.27 19.36 6.18 22.52 15.1l36.15 107.56c1.87 3.09.81 18.33.81 21.61 0 51.62-76.73 62.15-97.81 22.04zM149.78 469.33h-89.6c-8.15 0-15.61-3.36-21.02-8.76h-.06c-5.39-5.39-8.75-12.86-8.75-21.07V211.69c7.08 2.04 14.72 3.16 22.83 3.16 1.99 0 3.98-.07 5.97-.21V439.5c0 .25.12.51.32.7.17.21.44.33.71.33h72.83c4.95 9.71 10.53 19.34 16.77 28.8z"/></svg>