<svg xmlns="http://www.w3.org/2000/svg" shape-rendering="geometricPrecision" text-rendering="geometricPrecision" image-rendering="optimizeQuality" fill-rule="evenodd" clip-rule="evenodd" viewBox="0 0 433 511.65"><path fill-rule="nonzero" d="M192.07 93.48c27.87 0 53.13 11.32 71.39 29.58 18.26 18.26 29.57 43.53 29.57 71.41 0 27.88-11.31 53.14-29.57 71.39-18.26 18.26-43.52 29.58-71.39 29.58-27.88 0-53.14-11.32-71.4-29.58-18.26-18.25-29.57-43.51-29.57-71.39 0-27.88 11.31-53.15 29.57-71.41 18.26-18.26 43.52-29.58 71.4-29.58zM323.4 292.84c-5.86 0-11.58.57-17.08 1.67-11.33 2.25-21.86 6.61-31.48 13.04a85.577 85.577 0 0 0-13.23 10.9c-8.15 8.14-14.54 17.76-18.95 28.41a87.95 87.95 0 0 0-4.95 16.36 87.273 87.273 0 0 0-1.66 17c0 11.5 2.23 22.83 6.61 33.48a84.74 84.74 0 0 0 8.06 15.06c6.39 9.56 14.65 17.73 24.21 24.1 4.76 3.17 9.84 5.91 15.13 8.1 5.1 2.11 10.52 3.78 16.14 4.91 18.2 3.13 35.14 1.85 51.86-5.42 3-1.3 5.97-2.8 8.83-4.46a7.127 7.127 0 0 1 9.07 1.24l31.31 34.49 25.73-23.6-32.67-35.65c-2.25-2.21-2.84-5.74-1.2-8.62 1.65-2.92 3.21-5.97 4.55-9.13 1.32-3.07 2.51-6.29 3.47-9.56 4.02-13.58 4.72-27.76 2.01-41.72l-.04-.24c-3.39-17.03-11.63-32.51-23.93-44.77-16.37-16.41-38.72-25.59-61.79-25.59zm36.69 32.31c3.71 2.49 7.1 5.27 10.09 8.24 9.15 9.25 15.62 21.08 18.12 33.88 2.51 12.77 1.3 26.18-3.74 38.21-1.66 4.04-3.75 7.9-6.13 11.47-2.43 3.63-5.21 7-8.27 10.04a67.026 67.026 0 0 1-10.07 8.28c-18.18 12.18-41.62 14.59-62.01 6.09a66.001 66.001 0 0 1-11.38-6.11 66.1 66.1 0 0 1-18.31-18.24 65.887 65.887 0 0 1-11.18-36.79c0-8.77 1.75-17.21 4.91-24.96l.14-.36a66.71 66.71 0 0 1 14.35-21.51c3-2.97 6.41-5.77 10.11-8.24 7.1-4.71 15.42-8.2 23.76-9.86 4.22-.82 8.54-1.26 12.92-1.26 13.13 0 25.73 3.87 36.69 11.12zM197.78 486.51c8.21-5.22 16.15-10.76 23.82-16.64 4.08 6.51 8.7 12.66 13.78 18.4a360.541 360.541 0 0 1-30.91 21.13c-3.71 2.74-8.9 3.08-13.02.48-44.95-28.55-82.67-63-112.4-100.28C38.1 358.2 12.27 301.18 3.44 246.35-5.53 190.71 2.9 137.16 30.57 93.6c10.9-17.17 24.86-32.83 41.9-46.39C111.5 16.1 156.2-.37 200.54.01c42.73.37 85.06 16.3 121.64 49.68 12.81 11.68 23.6 25 32.41 39.5 29.44 48.56 36.04 110.43 23.48 173.19-7.27-2.12-14.81-3.63-22.52-4.52 11.46-57.34 5.7-113.37-20.6-156.77a156.229 156.229 0 0 0-28.27-34.36C274.48 37.35 237.49 23.31 200.35 23c-39.02-.32-78.63 14.39-113.57 42.23-14.91 11.87-27.15 25.61-36.73 40.71-24.57 38.69-31.98 86.66-23.9 136.82 8.2 50.94 32.43 104.22 70.92 152.52 26.82 33.62 60.57 64.85 100.71 91.23zm49.39-347.17c-14.08-14.07-33.59-22.83-55.1-22.83-21.52 0-41.03 8.76-55.11 22.83-14.08 14.08-22.83 33.62-22.83 55.13 0 21.51 8.75 41.03 22.83 55.11 14.08 14.08 33.59 22.83 55.11 22.83 21.51 0 41.02-8.75 55.1-22.83 14.08-14.08 22.84-33.6 22.84-55.11 0-21.51-8.76-41.05-22.84-55.13z"/></svg>